<svg viewBox="0 0 22 12" fill="none" xmlns="http://www.w3.org/2000/svg">
    <path d="M0.66025 7.33699C0.436416 7.11299 0.327666 6.84774 0.334 6.54124C0.340333 6.23474 0.455416 5.96957 0.67925 5.74574C0.90325 5.53441 1.1685 5.42557 1.475 5.41924C1.7815 5.41291 2.04675 5.52174 2.27075 5.74574L5.725 9.19999L6.12575 9.60074L6.52675 10.0017C6.75058 10.2256 6.85933 10.4887 6.853 10.7912C6.84667 11.0937 6.7315 11.357 6.5075 11.581C6.27967 11.7962 6.0125 11.9069 5.706 11.9132C5.3995 11.9196 5.13225 11.8088 4.90425 11.581L0.66025 7.33699ZM11.35 8.97774L19.7425 0.585239C19.9663 0.361406 20.2305 0.252656 20.535 0.258989C20.8395 0.265323 21.1057 0.380406 21.3337 0.604239C21.5489 0.828239 21.6607 1.09349 21.669 1.39999C21.6773 1.70649 21.5676 1.97374 21.3398 2.20174L12.1517 11.3897C11.9237 11.6176 11.6565 11.7315 11.35 11.7315C11.0435 11.7315 10.7762 11.6176 10.5482 11.3897L6.29825 7.13974C6.08308 6.92441 5.9765 6.66132 5.9785 6.35049C5.9805 6.03966 6.08908 5.77032 6.30425 5.54249C6.53225 5.31849 6.80167 5.20649 7.1125 5.20649C7.42333 5.20649 7.69075 5.31849 7.91475 5.54249L11.35 8.97774ZM15.4852 2.20874L12.1458 5.54824C11.9344 5.75957 11.6723 5.86524 11.3595 5.86524C11.0467 5.86524 10.7782 5.75957 10.5542 5.54824C10.3304 5.32441 10.2185 5.05607 10.2185 4.74324C10.2185 4.43041 10.3304 4.16199 10.5542 3.93799L13.894 0.59824C14.1052 0.387073 14.3673 0.28149 14.6803 0.28149C14.9931 0.28149 15.2614 0.387073 15.4852 0.59824C15.7092 0.82224 15.8212 1.09066 15.8212 1.40349C15.8212 1.71632 15.7092 1.98474 15.4852 2.20874Z" fill="#5F6368"/>
    <path d="M0.66025 7.33699C0.436416 7.11299 0.327666 6.84774 0.334 6.54124C0.340333 6.23474 0.455416 5.96957 0.67925 5.74574C0.90325 5.53441 1.1685 5.42557 1.475 5.41924C1.7815 5.41291 2.04675 5.52174 2.27075 5.74574L5.725 9.19999L6.12575 9.60074L6.52675 10.0017C6.75058 10.2256 6.85933 10.4887 6.853 10.7912C6.84667 11.0937 6.7315 11.357 6.5075 11.581C6.27967 11.7962 6.0125 11.9069 5.706 11.9132C5.3995 11.9196 5.13225 11.8088 4.90425 11.581L0.66025 7.33699ZM11.35 8.97774L19.7425 0.585239C19.9663 0.361406 20.2305 0.252656 20.535 0.258989C20.8395 0.265323 21.1057 0.380406 21.3337 0.604239C21.5489 0.828239 21.6607 1.09349 21.669 1.39999C21.6773 1.70649 21.5676 1.97374 21.3398 2.20174L12.1517 11.3897C11.9237 11.6176 11.6565 11.7315 11.35 11.7315C11.0435 11.7315 10.7762 11.6176 10.5482 11.3897L6.29825 7.13974C6.08308 6.92441 5.9765 6.66132 5.9785 6.35049C5.9805 6.03966 6.08908 5.77032 6.30425 5.54249C6.53225 5.31849 6.80167 5.20649 7.1125 5.20649C7.42333 5.20649 7.69075 5.31849 7.91475 5.54249L11.35 8.97774ZM15.4852 2.20874L12.1458 5.54824C11.9344 5.75957 11.6723 5.86524 11.3595 5.86524C11.0467 5.86524 10.7782 5.75957 10.5542 5.54824C10.3304 5.32441 10.2185 5.05607 10.2185 4.74324C10.2185 4.43041 10.3304 4.16199 10.5542 3.93799L13.894 0.59824C14.1052 0.387073 14.3673 0.28149 14.6803 0.28149C14.9931 0.28149 15.2614 0.387073 15.4852 0.59824C15.7092 0.82224 15.8212 1.09066 15.8212 1.40349C15.8212 1.71632 15.7092 1.98474 15.4852 2.20874Z" fill="url(#paint0_linear_1_53)"/>
    <defs>
        <linearGradient id="paint0_linear_1_53" x1="0.333738" y1="6.08611" x2="21.6694" y2="6.08611" gradientUnits="userSpaceOnUse">
            <stop stop-color="#FF3C3C"/>
            <stop offset="0.5" stop-color="#AC1414"/>
            <stop offset="1" stop-color="#FF3C3C"/>
        </linearGradient>
    </defs>
</svg>
