<svg viewBox="0 0 22 24" fill="none" xmlns="http://www.w3.org/2000/svg">
    <path d="M1.20356 22.9953L1.52387 21.7161L0.640592 21.3674L0.0338758 22.3673C0.0338758 22.3673 0.368381 23.2746 -0.00313854 23.9999C-0.0028488 24 0.46204 23.2081 1.20356 22.9953ZM0.61017 22.4083C0.718895 22.3638 0.844207 22.4146 0.889117 22.5214C0.934389 22.6282 0.882815 22.7511 0.77409 22.7956C0.665365 22.8402 0.540052 22.7893 0.495143 22.6826C0.449436 22.5754 0.501082 22.4524 0.61017 22.4083ZM10.4703 8.15767C7.92677 10.2438 4.59685 14.5409 1.77283 19.5606L1.77123 19.5587L1.27759 20.4298L1.80397 20.6323L2.08212 19.8995C3.5887 17.1838 7.67585 10.0918 15.1492 5.37978C15.1492 5.37978 17.9315 3.72268 20.6728 1.43091C20.0054 1.9888 18.6887 2.68809 17.9748 3.13922C16.1011 4.3231 13.7888 5.4357 10.4703 8.15767Z" fill="#010002"/>
    <path d="M1.40485 15.6C0.82646 17.6443 0.859563 19.2013 1.08339 19.6292H1.43325C2.39932 17.6282 7.05219 10.3797 9.94829 8.11085C12.9488 5.75997 15.2634 4.3921 17.2101 3.39453C17.8937 3.0443 18.5949 2.56993 19.2273 2.09439C19.9952 1.48883 20.7736 0.841116 21.4553 0.207237L19.4794 1.50303L20.3604 0.155591L18.6785 1.86586L19.773 0C17.1837 0.233603 14.7809 1.52903 14.7809 1.52903C13.8196 2.66923 13.0454 4.48308 13.0454 4.48308C13.0186 3.57612 13.6328 2.20275 13.6328 2.20275C13.179 2.40999 11.4545 3.39496 11.4545 3.39496C10.611 4.09468 10.349 5.93454 10.349 5.93454C10.1886 5.20881 10.7493 3.8098 10.7493 3.8098C8.31958 5.20924 6.58411 7.59315 6.58411 7.59315C5.38285 9.95113 6.37057 11.791 5.99666 11.3505C5.62275 10.91 5.70315 9.30342 5.70315 9.30342C3.16669 11.7394 2.89999 12.9052 2.89999 12.9052C2.47291 13.9417 2.099 16.7145 2.099 16.7145C1.85866 16.4553 2.099 15.0043 2.099 15.0043C1.48482 16.3001 1.77869 17.5178 1.77869 17.5178C1.48518 17.4139 1.40485 15.6 1.40485 15.6Z" fill="#010002"/>
    <path d="M21.4556 1.02795C21.4556 1.02795 20.479 1.97432 19.2277 2.91511C17.266 4.46225 15.3773 5.72697 15.3773 5.72697C7.97798 10.0993 3.85497 17.2347 2.49225 19.6812H3.21675C3.4728 19.4759 3.85736 19.3212 5.46325 18.8563C7.49223 18.2688 8.70255 17.0424 8.70255 17.0424C8.70255 17.0424 6.85161 18.079 5.97935 17.9754C5.10709 17.8718 3.93501 18.1999 3.93501 18.1999C3.93501 18.1999 3.48744 17.9927 5.69453 17.6645C7.90163 17.3363 11.5325 14.866 11.5325 14.866C11.5325 14.866 10.1442 15.4361 9.50353 15.3841C8.86292 15.3321 7.27876 15.3841 7.27876 15.3841C8.32871 15.1422 9.30774 15.2805 10.9096 14.6757C12.5115 14.071 12.4225 14.123 12.4225 14.123C14.238 13.5182 14.9921 11.6354 14.9921 11.6354C14.6781 11.7564 12.2799 12.0499 11.2851 11.7564C10.2903 11.4629 8.59549 11.7564 8.59549 11.7564C10.1974 11.221 10.5536 11.4629 10.9448 11.4456C11.3364 11.4283 12.6003 11.5318 15.1099 10.6683C17.6196 9.8047 18.3315 8.73346 18.3315 8.73346L16.639 8.9596C17.7441 8.77366 18.9899 8.04243 18.9899 8.04243C18.2244 8.24966 17.0318 8.35324 17.0318 8.35324C18.4379 8.04243 19.2211 7.61057 19.2211 7.61057C20.5382 6.60865 20.8408 5.123 20.8408 5.123C18.9717 5.76202 17.4947 5.46852 17.4947 5.46852C20.058 5.29598 20.7699 4.63921 21.1256 4.48398C21.4818 4.32839 21.6283 3.68502 21.6283 3.68502C20.3333 4.1515 18.8649 4.22908 18.8649 4.22908C20.4534 3.98287 21.8146 3.17949 21.8146 3.17949V2.37532C21.2004 2.72518 20.1197 2.99739 20.1197 2.99739L21.8016 1.9092C21.8961 1.36478 21.4556 1.02795 21.4556 1.02795ZM0.705928 21.0476L1.70626 21.4483L1.89256 21.0054L0.892303 20.6048L0.705928 21.0476ZM11.8236 20.6772C8.51856 22.2661 5.34344 23.3492 1.12076 23.491C0.726789 23.5044 0.724833 23.8984 1.12076 23.885C4.89826 23.7582 8.04143 22.9462 11.0727 21.5254C14.4495 19.9424 17.5509 18.6159 21.7806 18.1652C22.1707 18.1234 22.0048 17.744 21.6175 17.7854C17.8716 18.1849 14.8281 19.2329 11.8236 20.6772Z" fill="#010002"/>
    <path d="M21.4556 1.02795C21.4556 1.02795 20.479 1.97432 19.2277 2.91511C17.266 4.46225 15.3773 5.72697 15.3773 5.72697C7.97798 10.0993 3.85497 17.2347 2.49225 19.6812H3.21675C3.4728 19.4759 3.85736 19.3212 5.46325 18.8563C7.49223 18.2688 8.70255 17.0424 8.70255 17.0424C8.70255 17.0424 6.85161 18.079 5.97935 17.9754C5.10709 17.8718 3.93501 18.1999 3.93501 18.1999C3.93501 18.1999 3.48744 17.9927 5.69453 17.6645C7.90163 17.3363 11.5325 14.866 11.5325 14.866C11.5325 14.866 10.1442 15.4361 9.50353 15.3841C8.86292 15.3321 7.27876 15.3841 7.27876 15.3841C8.32871 15.1422 9.30774 15.2805 10.9096 14.6757C12.5115 14.071 12.4225 14.123 12.4225 14.123C14.238 13.5182 14.9921 11.6354 14.9921 11.6354C14.6781 11.7564 12.2799 12.0499 11.2851 11.7564C10.2903 11.4629 8.59549 11.7564 8.59549 11.7564C10.1974 11.221 10.5536 11.4629 10.9448 11.4456C11.3364 11.4283 12.6003 11.5318 15.1099 10.6683C17.6196 9.8047 18.3315 8.73346 18.3315 8.73346L16.639 8.9596C17.7441 8.77366 18.9899 8.04243 18.9899 8.04243C18.2244 8.24966 17.0318 8.35324 17.0318 8.35324C18.4379 8.04243 19.2211 7.61057 19.2211 7.61057C20.5382 6.60865 20.8408 5.123 20.8408 5.123C18.9717 5.76202 17.4947 5.46852 17.4947 5.46852C20.058 5.29598 20.7699 4.63921 21.1256 4.48398C21.4818 4.32839 21.6283 3.68502 21.6283 3.68502C20.3333 4.1515 18.8649 4.22908 18.8649 4.22908C20.4534 3.98287 21.8146 3.17949 21.8146 3.17949V2.37532C21.2004 2.72518 20.1197 2.99739 20.1197 2.99739L21.8016 1.9092C21.8961 1.36478 21.4556 1.02795 21.4556 1.02795ZM0.705928 21.0476L1.70626 21.4483L1.89256 21.0054L0.892303 20.6048L0.705928 21.0476ZM11.8236 20.6772C8.51856 22.2661 5.34344 23.3492 1.12076 23.491C0.726789 23.5044 0.724833 23.8984 1.12076 23.885C4.89826 23.7582 8.04143 22.9462 11.0727 21.5254C14.4495 19.9424 17.5509 18.6159 21.7806 18.1652C22.1707 18.1234 22.0048 17.744 21.6175 17.7854C17.8716 18.1849 14.8281 19.2329 11.8236 20.6772Z" fill="url(#paint0_linear_2001_584)"/>
    <defs>
        <linearGradient id="paint0_linear_2001_584" x1="0.705928" y1="12.4566" x2="22.0033" y2="12.4566" gradientUnits="userSpaceOnUse">
            <stop stop-color="#F1A500"/>
            <stop offset="0.528846" stop-color="#D39000"/>
            <stop offset="1" stop-color="#F1A500"/>
        </linearGradient>
    </defs>
</svg>
