<svg viewBox="0 0 22 20" fill="none" xmlns="http://www.w3.org/2000/svg">
    <path d="M8.62399 19.4625C13.1235 19.4625 16.7711 15.8149 16.7711 11.3154C16.7711 6.8159 13.1235 3.16833 8.62399 3.16833C4.12449 3.16833 0.476917 6.8159 0.476917 11.3154C0.476917 15.8149 4.12449 19.4625 8.62399 19.4625Z" fill="#FFCCEA"/>
    <path d="M8.71612 17.6125L8.61278 17.4364C7.03432 14.747 2.83976 9.03974 2.79739 8.98241L2.73689 8.90021L4.16595 7.48791L8.68958 10.6466C11.5378 6.95068 14.1949 4.41212 15.9282 2.92971C17.8243 1.30809 19.0585 0.561552 19.0709 0.554398L19.099 0.537598H21.5231L21.2915 0.743813C15.3363 6.04809 8.88153 17.3218 8.81724 17.4351L8.71612 17.6125Z" fill="#F00592"/>
</svg>
